<svg xmlns="http://www.w3.org/2000/svg" viewBox="0 0 342.55 129.84"><defs><style>.cls-1{fill:#fff;}.cls-2{fill:#cff846;}</style></defs><g id="Camada_2" data-name="Camada 2"><g id="Camada_1-2" data-name="Camada 1"><path class="cls-1" d="M28,51.73q-13.21,0-20.6-6.55T0,25.92Q0,13.11,7.39,6.55T28,0H52.62q8.67,0,13.25,4.09t4.59,11.68q0,15.47-17.84,15.47H15.37Q17.44,40.41,28,40.4h39.9V51.73Zm0-40.4q-10.15,0-12.52,8.58H51.93A4.08,4.08,0,0,0,55,18.72a4.49,4.49,0,0,0,1.14-3.25c0-2.76-1.42-4.14-4.24-4.14Z"/><path class="cls-1" d="M78.2,51.24V.49H117q8.58,0,12.62,4.29t4,11.28V26.61H119.19V17.84q0-5.92-5.91-5.92H92.69V51.24Z"/><path class="cls-1" d="M166.37,51.73q-13.2,0-20.59-6.55t-7.39-19.26q0-12.81,7.39-19.37T166.37,0H191q8.67,0,13.25,4.09t4.58,11.68q0,15.47-17.83,15.47H153.76q2.07,9.17,12.61,9.16h39.91V51.73Zm0-40.4q-10.14,0-12.51,8.58h36.46a4.08,4.08,0,0,0,3.1-1.19,4.48,4.48,0,0,0,1.13-3.25q0-4.14-4.23-4.14Z"/><path class="cls-1" d="M48.25,129.34q-8.56,0-12.61-4.28t-4-11.29V89.93H16.92V78.59H31.6V63H45.89V78.59H67V89.93H45.89V112q0,6,5.91,6H69.74v11.33Z"/><path class="cls-1" d="M100.91,129.84q-13.2,0-20.59-6.56T72.93,104q0-12.81,7.39-19.37t20.59-6.55h24.64q8.67,0,13.25,4.09t4.58,11.68q0,15.47-17.83,15.47H88.3q2.07,9.16,12.61,9.16h39.91v11.34Zm0-40.41Q90.77,89.43,88.4,98h36.46a4.08,4.08,0,0,0,3.1-1.19,4.47,4.47,0,0,0,1.13-3.25q0-4.14-4.23-4.14Z"/><path class="cls-1" d="M176.32,129.84q-13.2,0-20.59-6.56T148.34,104q0-12.81,7.39-19.37t20.59-6.55h33V89.43h-33q-6.4,0-9.8,3.55t-3.4,11q0,7.38,3.4,10.94t9.8,3.54h34v11.34Z"/><path class="cls-2" d="M289.28,112.57a5.8,5.8,0,0,1-4.11-9.89l43.39-43.55L285.17,15.58a5.8,5.8,0,1,1,8.21-8.19L340.86,55a5.81,5.81,0,0,1,0,8.19l-47.48,47.65A5.79,5.79,0,0,1,289.28,112.57Z"/><path class="cls-2" d="M256.13,112.57a5.7,5.7,0,0,1-2.21-.44,5.79,5.79,0,0,1-3.59-5.36V79.85L233.77,63.22a5.79,5.79,0,0,1,0-8.19l16.56-16.62V11.48a5.8,5.8,0,0,1,9.91-4.09L307.71,55a5.79,5.79,0,0,1,0,8.19l-47.47,47.65A5.8,5.8,0,0,1,256.13,112.57ZM246.06,59.13l14.18,14.23a5.8,5.8,0,0,1,1.69,4.09V92.74l33.49-33.61L261.93,25.52V40.81a5.82,5.82,0,0,1-1.69,4.09Z"/></g></g></svg>