<svg xmlns="http://www.w3.org/2000/svg" viewBox="0 0 112.97 109.31"><defs><style>.cls-1{fill:#fff;}</style></defs><g id="Camada_2" data-name="Camada 2"><g id="Camada_1-2" data-name="Camada 1"><path class="cls-1" d="M58.49,109.3a5.92,5.92,0,0,1-4.2-10.11L98.67,54.65,54.29,10.12a5.93,5.93,0,0,1,8.4-8.38l48.55,48.73a5.92,5.92,0,0,1,0,8.37L62.69,107.56A5.92,5.92,0,0,1,58.49,109.3Z"/><path class="cls-1" d="M24.6,109.31a5.94,5.94,0,0,1-5.93-5.94V75.84l-16.94-17a5.92,5.92,0,0,1,0-8.37l16.94-17V5.93A5.93,5.93,0,0,1,28.8,1.74L77.35,50.47a5.94,5.94,0,0,1,0,8.37L28.8,107.56A5.91,5.91,0,0,1,24.6,109.31ZM14.3,54.65,28.8,69.2a5.93,5.93,0,0,1,1.73,4.19V89L64.78,54.65,30.53,20.28V35.91A5.93,5.93,0,0,1,28.8,40.1Z"/></g></g></svg>